<svg xmlns="http://www.w3.org/2000/svg" id="Layer_1" data-name="Layer 1" viewBox="0 0 1000 300"><defs><style>      .cls-1 {        fill: #95653e;      }      .cls-1, .cls-2 {        stroke-width: 0px;      }      .cls-2 {        fill: #001689;      }    </style></defs><path class="cls-2" d="m503.87,197.54c-7.26,0-13.14-5.88-13.14-13.14v-102.72c0-7.26,5.88-13.14,13.14-13.14s13.14,5.88,13.14,13.14v102.72c0,7.25-5.88,13.14-13.14,13.14"></path><path class="cls-2" d="m299.37,67.65h-12.65c-35.48,0-64.27,28.76-64.27,64.25v1.32c0,35.48,28.79,64.25,64.27,64.25h12.65c35.48,0,64.25-28.77,64.25-64.25v-1.32c0-35.49-28.77-64.25-64.25-64.25m-3.22,106.78h-6.22c-23.13,0-41.89-18.76-41.89-41.87s18.76-41.88,41.89-41.88h6.22c23.13,0,41.86,18.74,41.86,41.88s-18.73,41.87-41.86,41.87"></path><path class="cls-2" d="m248.63,223.03c0-1.88-1.53-3.4-3.42-3.4-.87,0-1.66.32-2.26.87h-.01s-.08.04-.1.1c-.03.01-.06.05-.09.08-20.75,22.24-50.28,36.15-83.1,36.15-62.74,0-113.61-50.87-113.61-113.62,0-1.04.06-2.05.06-3.08.36-1.64,1.33-2.83,3.41-2.6,4.09.41,4.09-3.89,4.09-3.89h0c4.8-53.99,49.8-96.42,104.9-97.14h38.99c3.16,0,5.71-3.1,5.71-6.9s-2.55-6.9-5.71-6.9l-38.96-.26c-53.72.59-98.96,36.24-114.04,85.13-.05.15-.07.29-.11.45-.52,1.67-1.01,3.38-1.46,5.1-.09.32-.14.65-.23.99-.39,1.55-.75,3.11-1.08,4.69-.1.48-.18.95-.27,1.43-.28,1.45-.55,2.89-.77,4.36-.08.59-.16,1.17-.26,1.78-.16,1.36-.35,2.74-.5,4.12-.08.67-.12,1.34-.17,2.02-.13,1.32-.23,2.66-.31,3.99-.05.72-.05,1.43-.08,2.17-.04.98-.1,1.96-.12,2.94h.04c0,.53-.04,1.06-.04,1.59,0,66.55,53.96,120.51,120.5,120.51,34.76,0,66.06-14.73,88.06-38.27-.01-.02-.01-.03-.05-.05.6-.6.96-1.45.96-2.37"></path><path class="cls-1" d="m227.21,201.64c0-1.88-1.52-3.39-3.38-3.39-1.07,0-1.98.49-2.62,1.24-15.26,16.59-37.12,26.96-61.42,26.96-46.1,0-83.46-37.36-83.46-83.45,0-.43.04-.83.04-1.26h-.02c.55-3.53,2.12-4.39,3.69-4.21,2.24.43,3.34-1.33,3.89-3.17l.12.06c.06-.51.14-1.01.2-1.52.07-.38.11-.72.14-1.04,5.3-36.22,36.1-64.18,73.6-65.06h39.9c2.94,0,5.32-3.1,5.32-6.9s-2.38-6.91-5.32-6.91l-38.68-.2c-49.55.32-89.61,40.57-89.61,90.2,0,.12,0,.26,0,.39h0c0,1.64.07,3.26.16,4.87.03.74.11,1.43.16,2.17.09,1,.17,2.01.3,3,.09.79.19,1.56.3,2.32.12.95.28,1.9.45,2.85.11.75.26,1.47.4,2.22.22,1.04.44,2.09.7,3.13.14.6.26,1.19.4,1.8.42,1.54.86,3.09,1.34,4.61.19.58.4,1.13.61,1.69.32,1.03.7,2.07,1.09,3.08.23.61.48,1.22.74,1.84.38.97.79,1.93,1.22,2.88.26.58.51,1.15.8,1.71.49,1.12,1.06,2.2,1.62,3.27.2.38.4.76.6,1.15.79,1.45,1.61,2.88,2.46,4.27.22.32.41.63.6.93.71,1.11,1.41,2.19,2.17,3.28.28.41.58.81.88,1.23.71.98,1.43,1.94,2.17,2.9.3.37.6.75.88,1.11.89,1.1,1.81,2.19,2.76,3.26.14.16.3.35.45.52,1.16,1.28,2.34,2.52,3.59,3.75.07.06.14.12.18.17,1.14,1.11,2.31,2.19,3.49,3.23.27.25.54.46.82.69,1.04.9,2.09,1.77,3.17,2.63.26.2.54.43.84.65,1.23.94,2.49,1.85,3.76,2.74.08.05.14.11.23.17v-.03c14.48,9.93,32,15.73,50.87,15.73,26.13,0,49.68-11.12,66.14-28.9h-.02c.78-.63,1.29-1.58,1.29-2.66"></path><path class="cls-2" d="m204.21,178.53c0-1.93-1.55-3.5-3.49-3.5-1.23,0-2.31.64-2.94,1.59-9.29,10.5-22.85,17.12-37.99,17.12-28.03,0-50.73-22.72-50.73-50.74.25-4.65,1.98-5.86,3.83-5.47,2.5.77,3.63-2.35,4.08-4.29l-.02-.03h.13c4.34-18.99,20.93-33.27,41.05-34.04h39.75c2.95,0,5.33-3.1,5.33-6.91s-2.38-6.91-5.33-6.91c0,0-42.34.07-42.7.16-29.69,2.34-53.06,27.17-53.06,57.47,0,1.18.05,2.36.1,3.54h0c1.86,30.19,26.9,54.11,57.56,54.11,17.19,0,32.59-7.5,43.17-19.43.75-.65,1.25-1.61,1.25-2.69"></path><path class="cls-2" d="m473.81,73.53c-2.05-3.07-5.4-5.19-9.26-5.59-.43-.05-.86-.07-1.3-.07h-63.98c-.06,0-.11,0-.16,0h-13.37c-1.93.92-3.55,2.38-4.65,4.19v110.62l.09.81v1.71c0,2.11.52,4.1,1.44,5.85.15.28.31.56.47.82,2.24,3.62,6.23,6.03,10.8,6.03,4.93,0,9.2-2.82,11.31-6.93.15-.3.3-.6.43-.91.55-1.32.86-2.76.94-4.26.01-.2.03-.4.03-.61v-59.33c0-.2-.02-.4-.03-.6v-28.68l3.38-3.2h47.96c-.05-.04-.1-.08-.15-.12h5.51c4.4,0,8.29-2.24,10.56-5.65,1.35-2.02,2.14-4.44,2.14-7.05s-.79-5.03-2.14-7.05"></path><path class="cls-2" d="m657.2,75.78c-1.86-4.25-5.92-7.3-10.74-7.73-.39-.04-.77-.06-1.16-.06h-35.69c-.39,0-.78.03-1.16.06h-6.88v.09c-.67-.04-1.32-.09-1.98-.09-36.06,0-65.29,29.23-65.29,65.27,0,32.3,23.45,59.04,54.22,64.3h2.38c.5.06,1,.1,1.52.1h6.1c7.17,0,12.99-5.82,12.99-12.99,0-3.41-1.32-6.5-3.47-8.82-2.37-2.56-5.76-4.17-9.52-4.17h-.84l-.08-.03c-21.48,0-38.88-17.41-38.88-38.88s17.41-38.87,38.88-38.87h11.71c.1,0,.2.02.3.02h35.69c.1,0,.2-.02.3-.02h2.13l.12-.24c5.96-1.19,10.44-6.44,10.44-12.74,0-1.85-.39-3.61-1.09-5.2"></path><path class="cls-2" d="m419.69,131.4c0-7.02,5.69-12.7,12.7-12.7h24.08c7.01,0,12.7,5.69,12.7,12.7s-5.69,12.7-12.7,12.7h-24.08c-7.02,0-12.7-5.69-12.7-12.7"></path><path class="cls-2" d="m735.18,80.75l-.11-9.58c-1.01-1.31-2.25-2.44-3.65-3.34h-48.97c-1.86.75-3.53,1.86-4.91,3.26l-4.03,8.32-6.6,13.65c-.19.14-.26.32-.26.52l-40.83,84.31-2.32,4.97c-2.46,5.27-.78,11.41,3.71,14.76.65.48,1.35.91,2.11,1.26,4.16,1.94,8.87,1.3,12.31-1.26h.15l.1-.2c1.43-1.13,2.64-2.59,3.47-4.36l5.49-11.76h6.61c.92.2,1.87.32,2.85.32h29.59c.98,0,1.93-.12,2.85-.32,1.7-.38,3.28-1.09,4.66-2.06,3.39-2.37,5.62-6.31,5.62-10.76s-2.23-8.39-5.62-10.76c-1.27-.89-2.7-1.55-4.24-1.94-1.05-.27-2.14-.43-3.28-.43h-26.94l18.48-39.58,10-20.67,6.36-3.58h11.21v93.35c0,1.39.22,2.73.62,3.99,1.38,4.34,4.96,7.69,9.43,8.77.99.24,2.03.38,3.09.38s2.1-.14,3.09-.38c5.06-1.22,8.96-5.35,9.84-10.53.12-.73.2-1.46.2-2.22v-102.72c0-.47-.04-.93-.09-1.39"></path><path class="cls-2" d="m829.8,129.72c-.53-.23-1.06-.47-1.6-.68,2.6-.98,5.04-2.23,7.29-3.67,9.04-5.81,14.9-15.07,14.9-25.52s-5.99-19.88-15.18-25.69c-6.14-3.88-13.7-6.2-21.91-6.2-.27,0-20.03-.02-35.01-.03v-.05h-9.88c-.06.02-.11.03-.16.04-2.33.65-4.54,1.64-6.54,2.9-3.82,2.41-6.92,5.84-8.94,9.91v105.61c2.02,4.07,5.12,7.49,8.94,9.91.77.49,1.56.93,2.39,1.33.03.02.05.03.07.04h53.33c7.72-1.07,14.74-3.9,20.48-7.98,9.33-6.63,15.28-16.56,15.28-27.68,0-14.1-9.55-26.27-23.44-32.24m-22.22,46.38h-29.3v-88.8c12.36-.07,27.29-.15,28.26-.15,11.31,0,20.5,7.31,20.5,16.35s-8.49,15.7-19.2,16.23l-16.06.1v19.86s14.77.1,15.8.1c11.89,0,21.52,8.13,21.52,18.15s-9.63,18.17-21.52,18.17"></path><path class="cls-2" d="m396.01,232.65h7.26c3.93,0,6.76.37,8.49,1.09,1.74.73,3.11,1.9,4.1,3.52,1,1.63,1.51,3.57,1.51,5.83,0,2.5-.66,4.59-1.97,6.25-1.31,1.66-3.09,2.82-5.34,3.47-1.32.38-3.72.56-7.21.56v15.22h-6.84v-35.94Zm6.84,14.05h2.18c1.71,0,2.9-.13,3.56-.37.67-.24,1.19-.65,1.57-1.21.39-.57.58-1.25.58-2.05,0-1.39-.53-2.41-1.61-3.04-.78-.47-2.23-.71-4.35-.71h-1.93v7.38Z"></path><path class="cls-2" d="m435.92,241.33c2.51,0,4.86.62,7.07,1.88,2.21,1.26,3.93,2.96,5.16,5.11,1.24,2.15,1.86,4.47,1.86,6.96s-.62,4.86-1.87,7.04c-1.25,2.18-2.95,3.89-5.1,5.12-2.15,1.23-4.52,1.84-7.11,1.84-3.81,0-7.07-1.35-9.76-4.06-2.7-2.72-4.05-6.01-4.05-9.89,0-4.15,1.53-7.61,4.57-10.38,2.67-2.41,5.74-3.62,9.22-3.62m.11,6.27c-2.07,0-3.8.72-5.17,2.17-1.38,1.44-2.07,3.29-2.07,5.53s.68,4.18,2.04,5.62c1.36,1.43,3.09,2.15,5.18,2.15s3.83-.73,5.21-2.18c1.38-1.45,2.08-3.32,2.08-5.6s-.68-4.14-2.05-5.56c-1.36-1.42-3.1-2.14-5.22-2.14"></path><polygon class="cls-2" points="452.63 242.01 459.15 242.01 464.5 257.13 470.25 242.01 474.25 242.01 479.9 256.96 485.25 242.01 491.82 242.01 482.12 268.59 477.89 268.59 472.22 253.44 466.39 268.59 462.21 268.59 452.63 242.01"></polygon><path class="cls-2" d="m522.33,257.23h-21.43c.31,1.89,1.14,3.39,2.48,4.51,1.34,1.12,3.06,1.67,5.14,1.67,2.49,0,4.64-.87,6.43-2.61l5.62,2.64c-1.4,1.99-3.08,3.46-5.03,4.41-1.95.95-4.28,1.43-6.97,1.43-4.17,0-7.57-1.32-10.19-3.94-2.62-2.63-3.93-5.93-3.93-9.89s1.31-7.42,3.92-10.1c2.61-2.68,5.89-4.02,9.83-4.02,4.19,0,7.59,1.34,10.22,4.02,2.62,2.68,3.93,6.22,3.93,10.62l-.03,1.27Zm-6.67-5.26c-.44-1.48-1.31-2.69-2.61-3.62-1.3-.93-2.8-1.39-4.52-1.39-1.86,0-3.49.52-4.9,1.56-.88.65-1.7,1.8-2.45,3.45h14.47Z"></path><path class="cls-2" d="m526.26,242.01h5.72v3.35c.62-1.32,1.44-2.32,2.46-3,1.03-.69,2.15-1.03,3.38-1.03.86,0,1.76.23,2.71.68l-2.07,5.75c-.79-.39-1.43-.59-1.93-.59-1.02,0-1.9.63-2.6,1.9-.71,1.27-1.06,3.76-1.06,7.47l.03,1.3v10.75h-6.62v-26.59Z"></path><path class="cls-2" d="m570.57,257.23h-21.43c.31,1.89,1.14,3.39,2.48,4.51,1.34,1.12,3.06,1.67,5.14,1.67,2.49,0,4.64-.87,6.43-2.61l5.62,2.64c-1.4,1.99-3.08,3.46-5.03,4.41-1.95.95-4.28,1.43-6.97,1.43-4.17,0-7.57-1.32-10.19-3.94-2.62-2.63-3.93-5.93-3.93-9.89s1.31-7.42,3.92-10.1c2.61-2.68,5.89-4.02,9.83-4.02,4.19,0,7.59,1.34,10.22,4.02,2.62,2.68,3.93,6.22,3.93,10.62l-.03,1.27Zm-6.67-5.26c-.44-1.48-1.31-2.69-2.61-3.62-1.3-.93-2.8-1.39-4.52-1.39-1.86,0-3.49.52-4.9,1.56-.88.65-1.7,1.8-2.45,3.45h14.47Z"></path><path class="cls-2" d="m595.69,231.75h6.67v36.85h-6.67v-2.81c-1.3,1.23-2.61,2.12-3.91,2.67-1.31.55-2.73.81-4.26.81-3.44,0-6.4-1.33-8.91-3.99-2.51-2.66-3.76-5.98-3.76-9.93s1.21-7.47,3.64-10.09c2.42-2.62,5.37-3.93,8.84-3.93,1.59,0,3.09.3,4.49.91,1.39.6,2.69,1.5,3.88,2.71v-13.19Zm-7.01,15.73c-2.06,0-3.78.73-5.14,2.19-1.36,1.46-2.04,3.32-2.04,5.61s.69,4.18,2.08,5.67c1.39,1.48,3.1,2.22,5.12,2.22s3.84-.73,5.22-2.19c1.38-1.46,2.07-3.37,2.07-5.73s-.69-4.19-2.07-5.62c-1.38-1.43-3.13-2.15-5.24-2.15"></path><path class="cls-2" d="m629.93,231.75v13.19c1.21-1.21,2.51-2.11,3.91-2.71,1.4-.61,2.9-.91,4.5-.91,3.47,0,6.41,1.31,8.84,3.93,2.43,2.62,3.64,5.98,3.64,10.09s-1.26,7.27-3.76,9.93c-2.51,2.66-5.48,3.99-8.92,3.99-1.53,0-2.96-.27-4.28-.81-1.32-.55-2.63-1.44-3.93-2.67v2.81h-6.62v-36.85h6.62Zm7.02,15.73c-2.1,0-3.85.72-5.23,2.15-1.39,1.43-2.08,3.31-2.08,5.62s.69,4.27,2.08,5.73c1.38,1.46,3.12,2.19,5.23,2.19s3.75-.74,5.14-2.22c1.39-1.49,2.09-3.37,2.09-5.67s-.68-4.15-2.05-5.61c-1.37-1.46-3.1-2.19-5.18-2.19"></path><polygon class="cls-2" points="653.49 242.01 660.31 242.01 667.22 258.69 674.83 242.01 681.67 242.01 665.02 278.32 658.13 278.32 663.6 266.61 653.49 242.01"></polygon><path class="cls-1" d="m752.44,240.39c-8.33,8.68-19.53,9.11-26.39,7.56-5.55,9.37-11.28,19-11.8,19.52-1.04,1.21-3.21,2.35-4.69.69,0,0,7.21-11.54,13.37-21.18-1.56-.61-2.6-1.3-2.95-1.91-1.83-3.3-.69-4.69,2.09-.96.34.44,1.03.87,1.91,1.13,2.33-3.56,4.34-6.69,5.64-8.76,2.25-3.39,4.17-6.25,5.55-8.51-5.9.17-12.32,1.3-17.27,3.39-14.32,5.89-.52-2.43,2-3.13,6.42-1.91,12.24-3.03,17.27-3.47.52-.78.78-1.21.78-1.21,0,0,.61.26.78,1.13,16.31-.96,23.26,5.55,13.71,15.71m-14.58-12.41c-.26.44-.52.96-.86,1.48,0,0-4.69,7.89-9.72,16.48,6.59.87,17.62-.69,23-8.24,4.52-6.33-2.77-9.46-12.41-9.72"></path><path class="cls-1" d="m765.37,253.06c-.86-1.13-2.25-1.13-4.16-.69-1.83.43-5.82,3.65-7.46,4.95-1.65,1.39-6.6,5.9-5.82,7.72.61,1.48,2.78,1.3,5.47.35,2.77-1.04,5.72-3.12,7.38-4.42,1.56-1.3,4.86-5.55,5.12-5.65.27-.17,2.18.7,2.52,1.04.43.35-2.43,3.3-3.04,3.9-.43.61,1.65,4.35,6.25,4.52,4.6.26,10.33-4.77,10.77-4.77.34,0,.26,1.21.17,1.47-.17.26-3.38,3.04-7.29,4.35-3.99,1.39-6.68,1.04-8.94-.35-2-1.21-4-3.73-4.34-3.73-.26,0-2.34,2.69-6.77,4.95-6.07,3.13-9.55,2.43-11.11,1.04-1.65-1.39-.96-4.86,5.47-11.02,6.42-6.08,12.06-7.81,14.06-7.9,2-.17,4.52,1.65,4.6,2.43.18.69-1.91,2.68-2.17,2.68,0,0-.26-.26-.69-.86"></path><path class="cls-1" d="m816.92,261.57c-.78,1.38-8.24,4.6-12.67,5.81-4.42,1.13-12.93,2-17.53,0-4.51-2-5.47-6.6-4.69-7.03,8.07-5.82,10.6-7.73,10.85-8.24.17-.52.09-.95.17-2.08.18-1.74,1.39-3.21,3.04-2.95,1.74.35.35,4.17,0,5.64-.26,1.48,2.09,6.34,2.35,9.03.35,2.69-.61,3.73-.26,4.25.26.52,4.86-.09,9.63-1.74,4.86-1.73,9.81-4.08,9.11-2.68m-24.04-7.29c-.35.17-7.29,5.04-7.81,5.47-.61.43-.51,4.86,3.82,6.86,4.34,2.08,5.73-2.43,5.9-3.47.26-1.74-1.39-9.02-1.91-8.85"></path><path class="cls-1" d="m850.67,261.57c-.78,1.38-8.24,4.6-12.67,5.81-4.42,1.13-12.93,2-17.53,0-4.51-2-5.47-6.6-4.69-7.03,8.07-5.82,10.6-7.73,10.85-8.24.17-.52.09-.95.17-2.08.18-1.74,1.39-3.21,3.04-2.95,1.74.35.35,4.17,0,5.64-.26,1.48,2.09,6.34,2.35,9.03.35,2.69-.61,3.73-.26,4.25.26.52,4.86-.09,9.63-1.74,4.86-1.73,9.81-4.08,9.11-2.68m-24.04-7.29c-.35.17-7.29,5.04-7.81,5.47-.61.43-.51,4.86,3.82,6.86,4.34,2.08,5.73-2.43,5.9-3.47.26-1.74-1.39-9.02-1.91-8.85"></path><path class="cls-1" d="m858.04,251.76c.18.52.18,1.13-.08,1.74-.26.61-.69,1.3-1.31,2.17-.69.86-1.38,2-2.17,3.47-.86,1.56-1.12,2.78-.95,3.73.17.95.69,1.65,1.48,2.17.78.52,1.65.96,2.95.96,2.95.09,4.34-.35,5.64-.78,1.3-.35,2.69-1.04,3.91-1.65,1.3-.61,2.78-1.3,3.64-1.91,1.21-.87,2.43-1.04,2.78-.96.52.26.08.87,0,.96-.17.17-.78.61-1.83,1.13-1.04.52-2.35,1.13-3.73,1.83-1.48.61-2.95,1.38-4.6,2.08-3.38,1.39-4.6,1.83-8.41,1.74-1.39,0-2.7-.52-3.82-1.04-1.04-.52-1.82-1.13-2.08-2-.18-.61-.18-1.48,0-2.52.26-1.04.52-2.09,1.04-3.39.44-1.13.96-2.35,1.56-3.56.61-1.21,1.21-2.25,1.82-3.21.61-.95,1.13-1.65,1.56-2.25.44-.52.78-.7.96-.61.87.78,1.48,1.39,1.65,1.91m4-14.32c-.09-.44-.09-.96.09-1.56.17-.61.34-1.13.69-1.74.34-.61.61-1.13.95-1.65.35-.52.7-.87,1.13-1.21.26-.26.61-.44.87-.44.34.09.69.17,1.21.44.43.26.78.51,1.13.95.43.35.69.69.78,1.13.17.44.17.87-.09,1.13-.26.34-.69.86-1.3,1.39-.61.52-1.21,1.04-1.82,1.47-.7.44-1.31.79-1.83.96-.61.34-1.04.34-1.13.26-.44-.26-.69-.61-.69-1.12"></path><path class="cls-1" d="m909.77,261.66c-1.3.43-5.3,1.47-8.94,1.47s-8.94-3.12-8.94-3.12c0,0-1.39,8.59-12.59,8.59-7.38-.09-8.07-9.37-3.21-13.88,4.87-4.6,9.11-4.08,9.11-4.08.34-1.3,2.6-2.52,5.12,0,2.52,2.52,2.52,7.38,2.52,7.38,0,0-.34.86,3.73,2.35,4.08,1.47,7.38,1.56,12.41-.09,4.94-1.65,2.08.96.78,1.39m-19.18-2.78c-2.43-1.82-4.77-6.42-4.77-6.42,0,0-2.09.61-4.25,1.82-3.21,1.74-8.59,9.98-.87,11.72,6.07,1.39,10.15-6.94,9.9-7.12"></path><path class="cls-1" d="m918.18,251.58c-.69,2.09-3.91,8.86-3.3,8.86.52,0,16.41-12.24,18.83-11.89,2.43.43,3.9,4.34,4.43,5.9.69,1.65,2.43,7.64,3.56,7.99,1.13.43,6.25.09,10.15-1.39,3.73-1.56,7.55-3.82,8.07-3.73.61.08,1.21,1.3.79,1.56-.44.26-7.38,4.25-12.33,5.82-4.86,1.56-9.46,1.91-10.93.34-1.65-1.65-2.86-6.25-3.39-8.16-.43-1.91-1.21-4.78-6.86-1.74-5.64,2.95-12.75,8.68-15.01,10.42-2.26,1.91-2.78,3.21-4.17,3.13-1.39-.09-3.04-1.48-.86-4.52,2.25-2.95,6.25-11.72,6.77-12.59.26-.51,4.95-2.08,4.25,0"></path></svg>