<svg id="Layer_1" data-name="Layer 1" xmlns="http://www.w3.org/2000/svg" viewBox="0 0 91.31 105.65"><defs><style>.cls-1{fill:#28376c;}.cls-2{fill:#946641;}.cls-3{fill:#293769;}.cls-4{fill:#26356c;}.cls-5{fill:#916441;}.cls-6{fill:#1d295f;}</style></defs><path class="cls-1" d="M10,78.82h0v0Z" transform="translate(0 0)"/><path class="cls-2" d="M20.28,30.81v0h0Z" transform="translate(0 0)"/><path class="cls-1" d="M88.79,91.05a52.81,52.81,0,0,1-78-5.66,12.33,12.33,0,0,1-1-2C4.22,76.31,1.38,68.17.3,59.33a64.12,64.12,0,0,1,0-12.62C6,10.2,37.29-4,69.86,1c2.3,2.07,2.54,3.89-.64,5.31-7,.2-14,.24-20.92.62-9.1.5-17.06,4.1-24.3,9.51A48.92,48.92,0,0,0,12.27,29.5c-1,2-2,4-3.07,6.07q-1.48,6.27-3,12.54C6,49,6.3,50.35,5,50.48c-2.34.23-1.81,1.92-1.88,3.31-.25,5.37,1.21,10.49,2.41,15.64C6.22,70.76,7.09,72,7,73.65l.11.18L7,74c.93.64,1.68,1.38,1.48,2.64a.24.24,0,0,1,0,.42A2,2,0,0,1,10,78.82l0,0v0h0c4.05,6,8.78,11.47,14.9,15.48,5,3.3,10.66,5.3,16.43,7.12a37.8,37.8,0,0,0,18.95,1c9.74-2.08,19.22-5.9,26.42-13.62.94-1,2.19-3.76,4-1.81S89.89,90,88.79,91.05Z" transform="translate(0 0)"/><path class="cls-3" d="M10,78.82h0v0Z" transform="translate(0 0)"/><path class="cls-4" d="M70.7,29.36h0l0,0Z" transform="translate(0 0)"/><path class="cls-2" d="M15.75,66.29l0,0h0S15.75,66.28,15.75,66.29Z" transform="translate(0 0)"/><path class="cls-5" d="M15.76,66.26s0,0,0,0,0,0,0,0Z" transform="translate(0 0)"/><path class="cls-3" d="M70.57,70.48c-7,6.75-15.31,9.44-24.77,6.76S30.35,68,27.92,58.49c-.54-2.1-1.35-4.32-.68-6.6-.14-.6-.28-1.19.32-1.64l.39-2.1c.25-1,.51-2,.76-3A23.79,23.79,0,0,1,42.07,30.56c8.72-3.95,17.5-2.18,26.29-2.56,1.16-.23,2.2-.22,2.34,1.34l0,0,0,0,.55.8c.56,2.88-.87,3.8-3.54,3.76-4.87-.07-9.74,0-14.61,0a21.8,21.8,0,0,0-12.39,3.76,12.32,12.32,0,0,0-4.23,4.89c-1.85,3.54-2.42,7.93-6.25,10.28a4.38,4.38,0,0,1-.2,2.79c1.6,6.12,4.37,11.46,9.65,15.32,6.53,4.78,13.86,5.23,21.09,3,2.67-.81,5.5-3.12,7.64-5.59.74-.84,1.57-2.34,3-.92S71.41,69.67,70.57,70.48Z" transform="translate(0 0)"/><path class="cls-2" d="M80.94,80.21c-3.26,3.16-6.44,6.44-11.08,7.61-9,4.62-18.41,6.1-28.18,3C29.11,86.85,20,79.05,15.73,66.27l0,0s0,0,0,0h0a31.68,31.68,0,0,1-1.45-21.43.26.26,0,0,1,.05-.42,9.37,9.37,0,0,1,1.54-5.24h0a5.2,5.2,0,0,1,1.41-3.25.44.44,0,0,1,.15-.5,11.49,11.49,0,0,1,2.81-4.58h0v0l0,0a9.15,9.15,0,0,1,3-3.93A34.45,34.45,0,0,1,46.33,14.36c5.07-1.48,10.26-.56,15.38-.64,2.74,0,5.6-.75,8.28.55l.08,0c1.72.9,1.54,2.42,1.11,3.87-.48,1.62-1.9,1.69-3.33,1.68-6.32,0-12.64,0-19,0-10.06,1.8-18.34,6.38-24.13,15.05-2.58,3.87-3.92,8.15-5,12.58-.32,1.31-.08,3.17-2.34,3-2.25,2.52-.58,5.47-.9,8.21,0,.51.08,1,.11,1.53,1.92,6.05,4.17,11.91,8.54,16.72,7.32,8,16.36,12.1,27.27,12.55,5.39.23,10.24-1.27,15.11-3.09,4-2.32,8-4.64,11.1-8.08.83-.9,1.85-1.57,2.87-.59S81.67,79.5,80.94,80.21Z" transform="translate(0 0)"/><path class="cls-5" d="M20.28,30.81v0h0Z" transform="translate(0 0)"/><path class="cls-5" d="M20.28,30.81v0h0Z" transform="translate(0 0)"/><path class="cls-6" d="M70.7,29.34v0h0l0,0Z" transform="translate(0 0)"/><path class="cls-3" d="M10,78.82h0v0Z" transform="translate(0 0)"/><path class="cls-6" d="M71.23,30.16l-.55-.8,0,0,0,0C71.07,29.48,71.36,29.67,71.23,30.16Z" transform="translate(0 0)"/><path class="cls-2" d="M15.76,66.26s0,0,0,0l0,0h0Z" transform="translate(0 0)"/></svg>