<svg id="Layer_1" data-name="Layer 1" xmlns="http://www.w3.org/2000/svg" viewBox="0 0 209.5 241.27"><defs><style>.cls-1{fill:#001689;}.cls-2{fill:#95653e;}</style></defs><path class="cls-1" d="M209.5,200.59a3.41,3.41,0,0,0-3.42-3.4,3.32,3.32,0,0,0-2.26.87h0a.22.22,0,0,0-.1.1s-.06.05-.09.08A113.6,113.6,0,0,1,6.91,120.77c0-1,.06-2,.06-3.08.36-1.64,1.33-2.83,3.41-2.6,4.09.41,4.09-3.89,4.09-3.89h0a106.74,106.74,0,0,1,104.9-97.14h39c3.16,0,5.71-3.1,5.71-6.9s-2.55-6.9-5.71-6.9L119.4,0a120.78,120.78,0,0,0-114,85.13c-.05.15-.07.29-.11.45-.52,1.67-1,3.38-1.46,5.1-.09.32-.14.65-.23,1-.39,1.55-.75,3.11-1.08,4.69-.1.48-.18,1-.27,1.43-.28,1.45-.55,2.89-.77,4.36-.08.59-.16,1.17-.26,1.78-.16,1.36-.35,2.74-.5,4.12-.08.67-.12,1.34-.17,2-.13,1.32-.23,2.66-.31,4-.05.72-.05,1.43-.08,2.17,0,1-.1,2-.12,2.94H0c0,.53,0,1.06,0,1.59A120.48,120.48,0,0,0,208.56,203s0,0-.05-.05a3.35,3.35,0,0,0,1-2.37"/><path class="cls-2" d="M188.08,179.2a3.38,3.38,0,0,0-6-2.15A83.45,83.45,0,0,1,37.2,120.56c0-.43,0-.83,0-1.26h0c.55-3.53,2.12-4.39,3.69-4.21,2.24.43,3.34-1.33,3.89-3.17l.12.06c.06-.51.14-1,.2-1.52s.11-.72.14-1a76.25,76.25,0,0,1,73.6-65.06h39.9c2.94,0,5.32-3.1,5.32-6.9s-2.38-6.91-5.32-6.91l-38.68-.2a90.19,90.19,0,0,0-89.61,90.2v.39h0c0,1.64.07,3.26.16,4.87,0,.74.11,1.43.16,2.17.09,1,.17,2,.3,3,.09.79.19,1.56.3,2.32.12.95.28,1.9.45,2.85.11.75.26,1.47.4,2.22.22,1,.44,2.09.7,3.13.14.6.26,1.19.4,1.8.42,1.54.86,3.09,1.34,4.61.19.58.4,1.13.61,1.69.32,1,.7,2.07,1.09,3.08.23.61.48,1.22.74,1.84.38,1,.79,1.93,1.22,2.88.26.58.51,1.15.8,1.71.49,1.12,1.06,2.2,1.62,3.27l.6,1.15c.79,1.45,1.61,2.88,2.46,4.27.22.32.41.63.6.93.71,1.11,1.41,2.19,2.17,3.28.28.41.58.81.88,1.23.71,1,1.43,1.94,2.17,2.9l.88,1.11q1.33,1.65,2.76,3.26l.45.52c1.16,1.28,2.34,2.52,3.59,3.75a1.52,1.52,0,0,1,.18.17c1.14,1.11,2.31,2.19,3.49,3.23.27.25.54.46.82.69,1,.9,2.09,1.77,3.17,2.63.26.2.54.43.84.65,1.23.94,2.49,1.85,3.76,2.74l.23.17v0a90.13,90.13,0,0,0,117-13.17h0a3.41,3.41,0,0,0,1.29-2.66"/><path class="cls-1" d="M165.08,156.09a3.49,3.49,0,0,0-3.49-3.5,3.53,3.53,0,0,0-2.94,1.59,50.72,50.72,0,0,1-88.72-33.62c.25-4.65,2-5.86,3.83-5.47,2.5.77,3.63-2.35,4.08-4.29l0,0H78a43.85,43.85,0,0,1,41.05-34h39.75c2.95,0,5.33-3.1,5.33-6.91s-2.38-6.91-5.33-6.91c0,0-42.34.07-42.7.16A57.65,57.65,0,0,0,63,120.54c0,1.18,0,2.36.1,3.54h0a57.67,57.67,0,0,0,100.73,34.68,3.57,3.57,0,0,0,1.25-2.69"/></svg>