<svg id="Layer_1" data-name="Layer 1" xmlns="http://www.w3.org/2000/svg" viewBox="0 0 921.72 255.88"><defs><style>.cls-1{fill:#fff;}.cls-2{fill:#001689;}.cls-3{fill:#95653e;}</style></defs><path class="cls-1" d="M517,81.68V184.4a13.14,13.14,0,0,1-26.28,0V81.68a13.14,13.14,0,0,1,26.28,0Z" transform="translate(-39.13 -22.44)"/><path class="cls-1" d="M299.37,67.65H286.72a64.27,64.27,0,0,0-64.27,64.25v1.32a64.27,64.27,0,0,0,64.27,64.25h12.65a64.26,64.26,0,0,0,64.25-64.25V131.9A64.25,64.25,0,0,0,299.37,67.65Zm-3.22,106.78h-6.22a41.88,41.88,0,1,1,0-83.75h6.22a41.88,41.88,0,0,1,0,83.75Z" transform="translate(-39.13 -22.44)"/><path class="cls-1" d="M248.6,223a3.35,3.35,0,0,1-1,2.37s0,0,.05.05A120.48,120.48,0,0,1,39.13,143.2c0-.53,0-1.06,0-1.59h0c0-1,.08-2,.12-2.94,0-.74,0-1.45.08-2.17.08-1.33.18-2.67.31-4,0-.68.09-1.35.17-2,.15-1.38.34-2.76.5-4.12.1-.61.18-1.19.26-1.78.22-1.47.49-2.91.77-4.36.09-.48.17-1,.27-1.43.33-1.58.69-3.14,1.08-4.69.09-.34.14-.67.23-1,.45-1.72.94-3.43,1.46-5.1,0-.16.06-.3.11-.45a120.78,120.78,0,0,1,114-85.13l39,.26c3.16,0,5.71,3.1,5.71,6.9s-2.55,6.9-5.71,6.9h-39A106.73,106.73,0,0,0,53.6,133.64s0,4.3-4.09,3.89c-2.08-.23-3,1-3.41,2.6,0,1-.06,2-.06,3.08a113.6,113.6,0,0,0,196.71,77.47s.06-.07.09-.08a.22.22,0,0,1,.1-.1h0a3.32,3.32,0,0,1,2.26-.87,3.41,3.41,0,0,1,3.42,3.4Z" transform="translate(-39.13 -22.44)"/><path class="cls-1" d="M225.93,204.3h0a90.13,90.13,0,0,1-117,13.17v0l-.23-.17c-1.27-.89-2.53-1.8-3.76-2.74-.3-.22-.58-.45-.84-.65-1.08-.86-2.13-1.73-3.17-2.63-.28-.23-.55-.44-.82-.69-1.18-1-2.35-2.12-3.49-3.23a1.52,1.52,0,0,0-.18-.17c-1.25-1.23-2.43-2.47-3.59-3.75l-.45-.52q-1.43-1.6-2.76-3.26l-.88-1.11c-.74-1-1.46-1.92-2.17-2.9-.3-.42-.6-.82-.88-1.23-.76-1.09-1.46-2.17-2.17-3.28-.19-.3-.38-.61-.6-.93-.85-1.39-1.67-2.82-2.46-4.27l-.6-1.15c-.56-1.07-1.13-2.15-1.62-3.27-.29-.56-.54-1.13-.8-1.71-.43-1-.84-1.91-1.22-2.88-.26-.62-.51-1.23-.74-1.84-.39-1-.77-2.05-1.09-3.08-.21-.56-.42-1.11-.61-1.69-.48-1.52-.92-3.07-1.34-4.61-.14-.61-.26-1.2-.4-1.8-.26-1-.48-2.09-.7-3.13-.14-.75-.29-1.47-.4-2.22-.17-1-.33-1.9-.45-2.85-.11-.76-.21-1.53-.3-2.32-.13-1-.21-2-.3-3,0-.74-.13-1.43-.16-2.17-.09-1.61-.16-3.23-.16-4.87V143a90.19,90.19,0,0,1,89.61-90.2l38.68.2c2.94,0,5.32,3.11,5.32,6.91s-2.38,6.9-5.32,6.9H158a76.25,76.25,0,0,0-73.6,65.06c0,.32-.07.66-.14,1s-.14,1-.2,1.52l-.12-.06c-.55,1.84-1.65,3.6-3.89,3.17-1.57-.18-3.14.68-3.69,4.21h0c0,.43,0,.83,0,1.26a83.45,83.45,0,0,0,144.88,56.49,3.38,3.38,0,0,1,6,2.15h0A3.41,3.41,0,0,1,225.93,204.3Z" transform="translate(-39.13 -22.44)"/><path class="cls-1" d="M204.21,178.53v0A3.57,3.57,0,0,1,203,181.2a57.67,57.67,0,0,1-100.73-34.68c0-1.18-.1-2.36-.1-3.54a57.65,57.65,0,0,1,53.06-57.47c.36-.09,42.7-.16,42.7-.16,3,0,5.33,3.1,5.33,6.91s-2.38,6.91-5.33,6.91H158.13a43.85,43.85,0,0,0-41,34H117l0,0c-.45,1.94-1.58,5.06-4.08,4.29-1.85-.39-3.58.82-3.83,5.47a50.72,50.72,0,0,0,88.72,33.62,3.53,3.53,0,0,1,2.94-1.59A3.49,3.49,0,0,1,204.21,178.53Z" transform="translate(-39.13 -22.44)"/><path class="cls-1" d="M476,80.56a12.71,12.71,0,0,1-12.7,12.7h-5.51l.15.12H410l-3.38,3.2v28.68c0,.2,0,.4,0,.6v59.33c0,.21,0,.41,0,.61a12.84,12.84,0,0,1-.94,4.26c-.13.31-.28.61-.43.91a12.69,12.69,0,0,1-22.11.9c-.16-.26-.32-.54-.47-.82a12.53,12.53,0,0,1-1.44-5.85v-1.71l-.09-.81V72.06a11,11,0,0,1,4.65-4.19h77.51a11.2,11.2,0,0,1,1.3.07,12.71,12.71,0,0,1,9.26,5.59l0,0A12.64,12.64,0,0,1,476,80.56Z" transform="translate(-39.13 -22.44)"/><path class="cls-1" d="M658.29,81a13,13,0,0,1-10.44,12.74l-.12.24H645.6l-.3,0H609.61l-.3,0H597.6a38.88,38.88,0,1,0,0,77.75l.08,0h.84a13,13,0,1,1,0,26h-6.1a12.65,12.65,0,0,1-1.52-.1h-2.38A65.25,65.25,0,0,1,599.59,68.05c.66,0,1.31,0,2,.09v-.09h6.88c.38,0,.77-.06,1.16-.06H645.3a11.27,11.27,0,0,1,1.16.06A13,13,0,0,1,658.29,81Z" transform="translate(-39.13 -22.44)"/><path class="cls-1" d="M469.17,131.4a12.71,12.71,0,0,1-12.7,12.7H432.39a12.7,12.7,0,1,1,0-25.4h24.08A12.71,12.71,0,0,1,469.17,131.4Z" transform="translate(-39.13 -22.44)"/><path class="cls-1" d="M735.26,82.16V184.88a13.57,13.57,0,0,1-.2,2.22A13.13,13.13,0,0,1,709,184.87V91.52H697.78l-6.36,3.58-10,20.67-18.48,39.58h26.94a13.11,13.11,0,0,1,3.28.43,12.89,12.89,0,0,1,4.24,1.94,13.14,13.14,0,0,1-4.66,23.58,13.38,13.38,0,0,1-2.85.32H660.3a13.38,13.38,0,0,1-2.85-.32h-6.61l-5.49,11.76a12.08,12.08,0,0,1-3.47,4.36l-.1.2h-.15a12.05,12.05,0,0,1-18.13-14.76l2.32-5,40.83-84.31a.61.61,0,0,1,.26-.52l6.6-13.65,4-8.32a14.5,14.5,0,0,1,4.91-3.26h49a14.53,14.53,0,0,1,3.65,3.34l.11,9.58v0A12.81,12.81,0,0,1,735.26,82.16Z" transform="translate(-39.13 -22.44)"/><path class="cls-1" d="M829.82,129.72h0c-.53-.23-1.06-.47-1.6-.68a39.18,39.18,0,0,0,7.29-3.67c9-5.81,14.9-15.07,14.9-25.52s-6-19.88-15.18-25.69A41,41,0,0,0,813.3,68l-35,0v-.05h-9.88l-.16,0a24.67,24.67,0,0,0-15.48,12.81V186.34a24.78,24.78,0,0,0,8.94,9.91,23.15,23.15,0,0,0,2.39,1.33l.07,0H817.5a46.34,46.34,0,0,0,20.48-8c9.33-6.63,15.28-16.56,15.28-27.68C853.26,147.86,843.71,135.69,829.82,129.72ZM807.6,176.11H778.3V87.3l28.26-.15c11.31,0,20.5,7.31,20.5,16.35s-8.49,15.7-19.2,16.23l-16.06.1v19.86l15.8.1c11.89,0,21.52,8.13,21.52,18.15S819.49,176.11,807.6,176.11Z" transform="translate(-39.13 -22.44)"/><path class="cls-1" d="M415.86,237.26a8.58,8.58,0,0,0-4.1-3.52c-1.73-.72-4.56-1.09-8.49-1.09H396v35.94h6.84V253.37a30.43,30.43,0,0,0,7.21-.56,10.19,10.19,0,0,0,5.34-3.47,9.79,9.79,0,0,0,2-6.25A10.93,10.93,0,0,0,415.86,237.26Zm-5.7,7.86a3.12,3.12,0,0,1-1.57,1.21,11.81,11.81,0,0,1-3.56.37h-2.18v-7.38h1.93a9.24,9.24,0,0,1,4.35.71,3.25,3.25,0,0,1,1.61,3A3.53,3.53,0,0,1,410.16,245.12Z" transform="translate(-39.13 -22.44)"/><path class="cls-1" d="M448.15,248.32a13.55,13.55,0,0,0-5.16-5.11,14,14,0,0,0-7.07-1.88h0a13.94,13.94,0,0,0-13.79,14,13.51,13.51,0,0,0,4.05,9.89,13.25,13.25,0,0,0,9.76,4.06,14.06,14.06,0,0,0,7.11-1.84,13.55,13.55,0,0,0,5.1-5.12,14,14,0,0,0,1.87-7A13.7,13.7,0,0,0,448.15,248.32Zm-6.94,12.57a7.32,7.32,0,0,1-10.39,0,8,8,0,0,1-2-5.62,7.68,7.68,0,0,1,2.07-5.53A6.82,6.82,0,0,1,436,247.6h0a6.92,6.92,0,0,1,5.22,2.14,7.68,7.68,0,0,1,2.05,5.56A7.8,7.8,0,0,1,441.21,260.89Z" transform="translate(-39.13 -22.44)"/><polygon class="cls-1" points="452.69 219.57 442.99 246.15 438.76 246.15 433.09 231 427.26 246.15 423.08 246.15 413.5 219.57 420.02 219.57 425.37 234.69 431.12 219.57 435.12 219.57 440.77 234.52 446.12 219.57 452.69 219.57"/><path class="cls-2" d="M522.32,257.23h0Z" transform="translate(-39.13 -22.44)"/><path class="cls-1" d="M522.35,256q0-6.6-3.93-10.62a13.68,13.68,0,0,0-10.22-4,13.16,13.16,0,0,0-9.83,4,14,14,0,0,0-3.92,10.1,13.45,13.45,0,0,0,3.93,9.89,13.8,13.8,0,0,0,10.19,3.94,15.79,15.79,0,0,0,7-1.43,13.23,13.23,0,0,0,5-4.41L515,260.8a8.91,8.91,0,0,1-6.43,2.61,7.75,7.75,0,0,1-5.14-1.67,7.17,7.17,0,0,1-2.48-4.51h21.42Zm-21.17-4a8.7,8.7,0,0,1,2.45-3.45,8,8,0,0,1,4.9-1.56,7.55,7.55,0,0,1,4.52,1.39,6.7,6.7,0,0,1,2.61,3.62Z" transform="translate(-39.13 -22.44)"/><path class="cls-1" d="M540.53,242l-2.07,5.75a4.67,4.67,0,0,0-1.93-.59,3,3,0,0,0-2.6,1.9q-1.06,1.91-1.06,7.47l0,1.3v10.75h-6.62V242H532v3.35a7.14,7.14,0,0,1,2.46-3,5.93,5.93,0,0,1,3.38-1A6.34,6.34,0,0,1,540.53,242Z" transform="translate(-39.13 -22.44)"/><polygon class="cls-2" points="487.15 219.56 487.15 219.57 487.13 219.57 487.15 219.56"/><path class="cls-2" d="M570.56,257.23h0Z" transform="translate(-39.13 -22.44)"/><path class="cls-1" d="M570.59,256q0-6.6-3.93-10.62a13.68,13.68,0,0,0-10.22-4,13.16,13.16,0,0,0-9.83,4,14,14,0,0,0-3.92,10.1,13.45,13.45,0,0,0,3.93,9.89,13.8,13.8,0,0,0,10.19,3.94,15.79,15.79,0,0,0,7-1.43,13.23,13.23,0,0,0,5-4.41l-5.62-2.64a8.91,8.91,0,0,1-6.43,2.61,7.75,7.75,0,0,1-5.14-1.67,7.17,7.17,0,0,1-2.48-4.51h21.42Zm-21.17-4a8.7,8.7,0,0,1,2.45-3.45,8,8,0,0,1,4.9-1.56,7.55,7.55,0,0,1,4.52,1.39A6.7,6.7,0,0,1,563.9,252Z" transform="translate(-39.13 -22.44)"/><path class="cls-1" d="M595.69,231.75h0V245a12.25,12.25,0,0,0-3.88-2.71,11.13,11.13,0,0,0-4.49-.91,11.59,11.59,0,0,0-8.84,3.93,14.51,14.51,0,0,0-3.64,10.09,13.92,13.92,0,0,0,3.76,9.93,11.84,11.84,0,0,0,8.91,4,10.89,10.89,0,0,0,4.26-.81,13.36,13.36,0,0,0,3.91-2.67v2.81h6.67V231.75ZM593.92,261a7,7,0,0,1-5.22,2.19,6.76,6.76,0,0,1-5.12-2.22,8,8,0,0,1-2.08-5.67,7.89,7.89,0,0,1,2-5.61,6.74,6.74,0,0,1,5.14-2.19,7,7,0,0,1,5.24,2.15,7.68,7.68,0,0,1,2.07,5.62A8,8,0,0,1,593.92,261Z" transform="translate(-39.13 -22.44)"/><path class="cls-1" d="M647.18,245.25a11.6,11.6,0,0,0-8.84-3.93,11.14,11.14,0,0,0-4.5.91,12.48,12.48,0,0,0-3.91,2.71v-13.2h-6.62v36.85h6.62v-2.81a13.18,13.18,0,0,0,3.93,2.67,11.21,11.21,0,0,0,4.28.81,11.86,11.86,0,0,0,8.92-4,13.7,13.7,0,0,0,3.76-9.93A14.24,14.24,0,0,0,647.18,245.25ZM642.09,261a6.66,6.66,0,0,1-5.14,2.22,6.88,6.88,0,0,1-5.23-2.19,8,8,0,0,1-2.08-5.73,7.73,7.73,0,0,1,2.08-5.62,7,7,0,0,1,5.23-2.15,6.81,6.81,0,0,1,5.18,2.19,7.83,7.83,0,0,1,2,5.61A8,8,0,0,1,642.09,261Z" transform="translate(-39.13 -22.44)"/><polygon class="cls-1" points="642.54 219.57 625.89 255.88 619 255.88 624.47 244.17 614.36 219.57 621.18 219.57 628.09 236.25 635.7 219.57 642.54 219.57"/><path class="cls-1" d="M738.73,224.68a1.52,1.52,0,0,0-.78-1.13s-.26.43-.78,1.21a88.38,88.38,0,0,0-17.27,3.47c-2.52.7-16.32,9-2,3.13A50.31,50.31,0,0,1,735.17,228c-1.38,2.26-3.3,5.12-5.55,8.51-1.3,2.07-3.31,5.2-5.64,8.76a3.84,3.84,0,0,1-1.91-1.13c-2.78-3.73-3.92-2.34-2.09,1a6.1,6.1,0,0,0,2.95,1.91c-6.16,9.64-13.37,21.18-13.37,21.18,1.48,1.66,3.65.52,4.69-.69.52-.52,6.25-10.15,11.8-19.52,6.86,1.55,18.06,1.12,26.39-7.56C762,230.23,755,223.72,738.73,224.68Zm11.55,13c-5.38,7.55-16.41,9.11-23,8.24,5-8.59,9.72-16.48,9.72-16.48.34-.52.6-1,.86-1.48h0C747.51,228.24,754.8,231.37,750.28,237.7Z" transform="translate(-39.13 -22.44)"/><path class="cls-1" d="M782,260.35c-.27.15-.33.82-.09,1.71a22.49,22.49,0,0,1-6.66,3.77c-4,1.39-6.68,1-8.94-.35-2-1.21-4-3.73-4.34-3.73a30.48,30.48,0,0,1-6.77,4.95c-6.07,3.13-9.55,2.43-11.11,1s-1-4.86,5.47-11,12.06-7.81,14.06-7.9,4.52,1.65,4.6,2.43-1.91,2.68-2.17,2.68a7.58,7.58,0,0,1-.69-.86h0c-.86-1.13-2.25-1.13-4.16-.69s-5.82,3.65-7.46,4.95-6.6,5.9-5.82,7.72c.61,1.48,2.78,1.3,5.47.35a31.08,31.08,0,0,0,7.38-4.42c1.56-1.3,4.86-5.55,5.12-5.65a5.63,5.63,0,0,1,2.52,1c.43.35-2.43,3.3-3,3.9-.43.61,1.65,4.35,6.25,4.52S782,260,782.4,260l.07,0Z" transform="translate(-39.13 -22.44)"/><path class="cls-3" d="M782.57,261.48a5.38,5.38,0,0,1-.63.58c-.24-.89-.18-1.56.09-1.71l.44-.32C782.73,260.17,782.65,261.24,782.57,261.48Z" transform="translate(-39.13 -22.44)"/><path class="cls-3" d="M782.47,260l-.44.32c-.27.15-.33.82-.09,1.71a5.38,5.38,0,0,0,.63-.58C782.65,261.24,782.73,260.17,782.47,260Zm33.09,1.34a5,5,0,0,0,.27,1.16,3.63,3.63,0,0,0,1.09-1C817.18,261,816.62,261.06,815.56,261.37Z" transform="translate(-39.13 -22.44)"/><path class="cls-1" d="M815.56,261.37c-1.72.52-4.75,1.82-7.75,2.89-4.77,1.65-9.37,2.26-9.63,1.74s.61-1.56.26-4.25-2.61-7.55-2.35-9,1.74-5.29,0-5.64-2.86,1.21-3,2.95a10,10,0,0,1-.17,2.08c-.25.5-2.69,2.35-10.41,7.92.26.14.18,1.21.1,1.45a5.38,5.38,0,0,1-.63.58,8.4,8.4,0,0,0,4.78,5.32c4.6,2,13.11,1.13,17.53,0a52.86,52.86,0,0,0,11.58-4.85A5,5,0,0,1,815.56,261.37Zm-20.77,1.78c-.17,1-1.56,5.55-5.9,3.47s-4.43-6.43-3.82-6.86,7.46-5.3,7.81-5.47h0C793.4,254.13,795.05,261.41,794.79,263.15Z" transform="translate(-39.13 -22.44)"/><path class="cls-3" d="M815.56,261.37a5,5,0,0,0,.27,1.16,3.63,3.63,0,0,0,1.09-1C817.18,261,816.62,261.06,815.56,261.37Zm34.34-.15c-.14.46-.25.89-.35,1.32a3.58,3.58,0,0,0,1.12-1C850.88,261.15,850.57,261.08,849.9,261.22Z" transform="translate(-39.13 -22.44)"/><path class="cls-1" d="M841.56,264.26c-4.77,1.65-9.37,2.26-9.63,1.74s.61-1.56.26-4.25-2.61-7.55-2.35-9,1.74-5.29,0-5.64-2.86,1.21-3,2.95a10,10,0,0,1-.17,2.08c-.25.51-2.78,2.42-10.85,8.24-.2.11-.28.48-.22,1,1.06-.31,1.62-.33,1.36.2a3.63,3.63,0,0,1-1.09,1,8.49,8.49,0,0,0,4.64,4.85c4.6,2,13.11,1.13,17.53,0a53,53,0,0,0,11.55-4.83h0c.1-.43.21-.86.35-1.32C848.37,261.55,844.94,263.06,841.56,264.26Zm-13-1.11c-.17,1-1.56,5.55-5.9,3.47s-4.43-6.43-3.82-6.86,7.46-5.3,7.81-5.47h0C827.15,254.13,828.8,261.41,828.54,263.15Z" transform="translate(-39.13 -22.44)"/><path class="cls-3" d="M873.93,260.7a2.45,2.45,0,0,0-.87.07,8,8,0,0,0-.06,1.54,5.37,5.37,0,0,0,.93-.65C874,261.57,874.45,261,873.93,260.7Zm-24,.52c-.14.46-.25.89-.35,1.32a3.58,3.58,0,0,0,1.12-1C850.88,261.15,850.57,261.08,849.9,261.22Z" transform="translate(-39.13 -22.44)"/><path class="cls-1" d="M868.81,234.5a9.41,9.41,0,0,1-1.3,1.39c-.61.52-1.21,1-1.82,1.47a9.09,9.09,0,0,1-1.83,1c-.61.34-1,.34-1.13.26a1.24,1.24,0,0,1-.69-1.12h0a3.15,3.15,0,0,1,.09-1.56,7,7,0,0,1,.69-1.74c.34-.61.61-1.13.95-1.65a5.07,5.07,0,0,1,1.13-1.21,1.4,1.4,0,0,1,.87-.44,5.06,5.06,0,0,1,1.21.44,3.87,3.87,0,0,1,1.13,1,2,2,0,0,1,.78,1.13A1,1,0,0,1,868.81,234.5Z" transform="translate(-39.13 -22.44)"/><path class="cls-1" d="M873,262.31c-.25.14-.55.31-.9.48-1,.52-2.35,1.13-3.73,1.83s-3,1.38-4.6,2.08c-3.38,1.39-4.6,1.83-8.41,1.74a9.23,9.23,0,0,1-3.82-1,3.63,3.63,0,0,1-2.08-2,5.85,5.85,0,0,1,0-2.52l.09-.33h0a3.58,3.58,0,0,0,1.12-1c.21-.42-.1-.49-.77-.35.16-.53.35-1.1.6-1.73.44-1.13,1-2.35,1.56-3.56a36.76,36.76,0,0,1,1.82-3.21c.61-.95,1.13-1.65,1.56-2.25s.78-.7,1-.61a5.81,5.81,0,0,1,1.64,1.9,2.4,2.4,0,0,1-.08,1.74,12.17,12.17,0,0,1-1.31,2.17,23.19,23.19,0,0,0-2.17,3.47,5.84,5.84,0,0,0-1,3.73A3.19,3.19,0,0,0,855,265a5,5,0,0,0,3,1,14.11,14.11,0,0,0,5.64-.78,22.23,22.23,0,0,0,3.91-1.65,27.45,27.45,0,0,0,3.64-1.91,5.34,5.34,0,0,1,1.91-.89A8,8,0,0,0,873,262.31Z" transform="translate(-39.13 -22.44)"/><path class="cls-3" d="M873.93,260.7a2.45,2.45,0,0,0-.87.07,8,8,0,0,0-.06,1.54,5.37,5.37,0,0,0,.93-.65C874,261.57,874.45,261,873.93,260.7Zm35.72-.63c-.37.68-.74,1.34-1.1,1.95l1.21-.35C911,261.26,913.64,258.88,909.65,260.07Z" transform="translate(-39.13 -22.44)"/><path class="cls-1" d="M909,260.28c-5,1.65-8.33,1.56-12.41.09s-3.73-2.35-3.73-2.35,0-4.86-2.52-7.38-4.78-1.3-5.12,0c0,0-4.24-.52-9.11,4.08a9.91,9.91,0,0,0-3,6,2.45,2.45,0,0,1,.87-.07c.52.26.08.87,0,1a5.37,5.37,0,0,1-.93.65c.16,3.34,2.19,6.24,6.3,6.29,11.2,0,12.59-8.59,12.59-8.59s5.3,3.12,8.94,3.12a32.54,32.54,0,0,0,7.72-1.11c.36-.61.73-1.27,1.1-1.95ZM880.69,266c-7.72-1.74-2.34-10,.87-11.72a22.92,22.92,0,0,1,4.25-1.82s2.34,4.6,4.77,6.42h0C890.84,259.07,886.76,267.4,880.69,266Z" transform="translate(-39.13 -22.44)"/><path class="cls-1" d="M960.71,258.88c-.44.26-7.38,4.25-12.33,5.82s-9.46,1.91-10.93.34c-1.65-1.65-2.86-6.25-3.39-8.16s-1.21-4.78-6.86-1.74-12.75,8.68-15,10.42c-2.26,1.91-2.78,3.21-4.17,3.13s-3-1.48-.86-4.52a20.35,20.35,0,0,0,1.39-2.15l1.21-.35c1.24-.41,3.88-2.79-.11-1.6,1.94-3.6,3.92-7.89,4.28-8.49s5-2.08,4.25,0-3.91,8.86-3.3,8.86,16.41-12.24,18.83-11.89,3.9,4.34,4.43,5.9c.69,1.65,2.43,7.64,3.56,8s6.25.09,10.15-1.39c3.73-1.56,7.55-3.82,8.07-3.73S961.13,258.62,960.71,258.88Z" transform="translate(-39.13 -22.44)"/><path class="cls-3" d="M909.76,261.67l-1.21.35c.36-.61.73-1.27,1.1-1.95C913.64,258.88,911,261.26,909.76,261.67Z" transform="translate(-39.13 -22.44)"/></svg>